<svg width="80" height="28" viewBox="0 0 80 28" fill="none" xmlns="http://www.w3.org/2000/svg">
<path d="M26.3932 0.0359211C23.9527 0.264204 21.5979 1.23821 19.6902 2.81083C18.7055 3.61743 17.5352 5.03786 16.8406 6.2503C15.1042 9.27886 14.5619 13.2104 15.3611 16.8984C15.8844 19.2827 16.9262 21.3373 18.4914 23.0722C19.9328 24.6702 21.7121 25.8015 23.7767 26.4356C26.8309 27.3741 30.2942 27.1306 33.0153 25.7913C35.1181 24.7565 36.8735 23.1534 38.1865 21.0684C38.4957 20.5763 39 19.6683 39 19.6023C39 19.5719 38.5623 19.3182 35.0848 17.3398L33.5719 16.4774L33.3579 16.934C32.4159 18.9378 30.9174 20.1807 28.9146 20.6321C28.2581 20.7793 27.0688 20.7945 26.3932 20.6626C24.1621 20.2263 22.3686 18.6638 21.5456 16.4368C20.3895 13.3169 21.1888 9.6847 23.458 7.72146C24.7091 6.64599 26.0031 6.16913 27.6824 6.16913C29.0525 6.16913 30.2323 6.52424 31.2504 7.25475C31.9117 7.72146 32.6205 8.53313 33.1057 9.3651C33.258 9.62889 33.4007 9.87239 33.4197 9.90283C33.4435 9.94342 33.786 9.7405 34.4568 9.28393C35.0086 8.90853 36.1647 8.12222 37.0352 7.53376L38.6147 6.46844L38.4434 6.17928C37.8107 5.11396 36.7165 3.81021 35.7888 3.00868C34.0144 1.48172 31.9021 0.502634 29.5806 0.132307C28.8289 0.0105572 27.1734 -0.0401726 26.3932 0.0359211Z" fill="black"/>
<path d="M0.0333333 1.0336C0.0142857 1.048 0 2.4016 0 4.0336V7H5H10V4V1H8.90476H7.80952L7.8 2.7856L7.78571 4.576L6.94286 4.5904L6.09524 4.6V2.8V1L4.99048 1.0096L3.88095 1.024L3.86667 2.8096L3.85714 4.6H3.04762H2.2381V2.8V1H1.15238C0.552381 1 0.047619 1.0144 0.0333333 1.0336Z" fill="black"/>
<path d="M61.8656 1.03124C61.8173 1.05151 61.8028 2.47518 61.8028 7.90643C61.8028 12.4814 61.7835 14.9437 61.7497 15.3136C61.6869 15.9773 61.4841 16.8335 61.2572 17.3858C59.8665 20.7803 56.0373 22.437 52.4495 21.1856C51.4885 20.8512 50.6339 20.3142 49.9192 19.5998C48.9728 18.6575 48.4271 17.6543 48.0505 16.1698L47.9201 15.6632L47.9056 8.35228L47.8911 1.04644H44.9456H42L42.0193 8.4536C42.0338 16.4738 42.0241 16.1141 42.2946 17.5226C43.072 21.5352 45.5443 24.8791 49.0307 26.6371C50.8705 27.5643 52.7199 28 54.8301 28C57.8625 28 60.5715 27.0931 62.8603 25.3046C63.4253 24.8639 64.7146 23.5213 65.1298 22.9437C65.5548 22.3509 65.9797 21.6416 66.3177 20.9424L66.6074 20.3496H68.9011C71.7984 20.3496 72.3972 20.2838 73.7782 19.8126C75.2703 19.3009 76.463 18.5156 77.535 17.3351C78.1724 16.6359 78.5876 16.0077 79.0174 15.1059C79.761 13.5353 80.0508 12.0812 79.9928 10.2471C79.9542 9.06158 79.7997 8.18002 79.4423 7.17686C78.1917 3.6506 75.2461 1.40616 71.3879 1.04644C70.8519 0.995779 61.9767 0.980579 61.8656 1.03124ZM70.8326 6.79181C72.7207 7.09579 73.923 8.5904 73.923 10.6322C73.923 11.3871 73.8313 11.8279 73.5609 12.4206C73.1987 13.2009 72.711 13.7227 72.0012 14.0926C71.2624 14.4726 70.9244 14.5232 69.2295 14.5232H67.8871V10.622V6.72088H69.1329C69.9634 6.72088 70.5236 6.74621 70.8326 6.79181Z" fill="black"/>
<path d="M0 11.25V12.5H1.90476H3.80952V14V15.5H1.90476H0V16.75V18H5H10V16.75V15.5H8.09524H6.19048V14V12.5H8.09524H10V11.25V10H5H0V11.25Z" fill="black"/>
<path d="M0.0857143 19.0176C0.0047619 19.0384 0 19.2727 0 23.0218V27H1.11905H2.2381V25.6201V24.2403H6.11905H10V22.9645V21.6888H6.11905H2.2381L2.22857 20.3454L2.21429 19.0072L1.19048 19.002C0.628571 18.9967 0.128571 19.002 0.0857143 19.0176Z" fill="black"/>
</svg>
